<svg width="16" height="16" viewBox="0 0 16 16" fill="none" xmlns="http://www.w3.org/2000/svg">
<path fill-rule="evenodd" clip-rule="evenodd" d="M5.94246 0H10.0691L10.4813 2.74643C10.706 2.86098 10.9213 2.98933 11.1279 3.1302L13.7956 2.20814L15.8584 5.8437L13.3258 7.67296V8.32704L15.8584 10.1563L13.784 13.8124L11.2211 12.8199C11.0167 12.9579 10.8018 13.0867 10.5757 13.2021L10.0442 16H5.94469L5.46307 13.1994C5.23939 13.0859 5.02508 12.9588 4.81941 12.8192L2.21391 13.8087L0.141602 10.1563L2.67417 8.32704V7.67296L0.141602 5.8437L2.22032 2.18L4.8305 3.23078C5.03053 3.09607 5.24058 2.97008 5.46135 2.85692L5.94246 0ZM7.21098 1.5L6.80637 3.90261L6.42448 4.06206C6.06265 4.21314 5.71961 4.42319 5.3882 4.67642L5.04889 4.93568L2.87741 4.06151L2.10958 5.4148L4.17417 6.90604V9.09396L2.10958 10.5852L2.88381 11.9498L5.06229 11.1225L5.39546 11.3836C5.71672 11.6353 6.05737 11.839 6.42448 11.9923L6.8048 12.1511L7.20875 14.5H8.80233L9.24919 12.1478L9.6217 11.9923C9.98353 11.8412 10.3266 11.6312 10.658 11.378L10.9921 11.1227L13.1183 11.9461L13.8904 10.5852L11.8258 9.09396V6.90604L13.8904 5.4148L13.1066 4.03336L10.8611 4.80949L10.5395 4.55751C10.2183 4.30575 9.87761 4.10206 9.51051 3.94878L9.12051 3.78595L8.77743 1.5H7.21098Z" fill="currentColor"/>
<path fill-rule="evenodd" clip-rule="evenodd" d="M6.65356 8.00001C6.65356 8.79715 7.28506 9.40001 8.00011 9.40001C8.71516 9.40001 9.34665 8.79715 9.34665 8.00001C9.34665 7.20286 8.71516 6.60001 8.00011 6.60001C7.28506 6.60001 6.65356 7.20286 6.65356 8.00001ZM5.15356 8.00001C5.15356 9.59915 6.43044 10.9 8.00011 10.9C9.56977 10.9 10.8467 9.59915 10.8467 8.00001C10.8467 6.40086 9.56977 5.10001 8.00011 5.10001C6.43044 5.10001 5.15356 6.40086 5.15356 8.00001Z" fill="currentColor"/>
</svg>
