<svg width="16" height="16" viewBox="0 0 16 16" fill="none" xmlns="http://www.w3.org/2000/svg">
<path fill-rule="evenodd" clip-rule="evenodd" d="M5.97503 7.25H10.0232C9.83952 5.33678 9.13836 3.52559 7.99998 2.00183C6.85742 3.53084 6.15589 5.3466 5.97503 7.25ZM10.025 8.75C9.84413 10.6534 9.14259 12.4692 8.00003 13.9982C6.86166 12.4744 6.16049 10.6632 5.97679 8.75H10.025ZM11.5309 8.75H14.4572C14.1478 11.4433 12.1921 13.6359 9.62187 14.296C10.707 12.6405 11.3662 10.7347 11.5309 8.75ZM14.4572 7.25H11.5293C11.3619 5.25743 10.7034 3.35494 9.62165 1.70392C12.192 2.36401 14.1478 4.55661 14.4572 7.25ZM4.46913 7.25H1.5428C1.85224 4.55668 3.80789 2.36413 6.37814 1.70397C5.29298 3.35946 4.63378 5.2653 4.46913 7.25ZM4.47076 8.75H1.5428C1.85224 11.4434 3.808 13.636 6.37836 14.2961C5.29662 12.6451 4.63811 10.7426 4.47076 8.75ZM0 8C0 3.58172 3.58172 0 8 0L8.00195 3.05531e-06C12.4193 0.00105872 16 3.58237 16 8C16 12.4183 12.4183 16 8 16C3.58172 16 0 12.4183 0 8Z" fill="currentColor"/>
</svg>
