<svg width="16" height="16" viewBox="0 0 16 16" fill="none" xmlns="http://www.w3.org/2000/svg">
<path fill-rule="evenodd" clip-rule="evenodd" d="M7.25 6V3.94293C5.57242 4.25072 4.25072 5.57241 3.94293 7.25H6V8.75H3.94293C4.25072 10.4276 5.57241 11.7493 7.25 12.0571V10H8.75V12.0571C10.4276 11.7493 11.7493 10.4276 12.0571 8.75H10V7.25H12.0571C11.7493 5.57241 10.4276 4.25072 8.75 3.94293V6H7.25ZM13.5755 7.25C13.2417 4.74255 11.2574 2.75829 8.75 2.42452V0H7.25V2.42452C4.74255 2.75829 2.75829 4.74255 2.42452 7.25H0V8.75H2.42452C2.75829 11.2575 4.74255 13.2417 7.25 13.5755V16H8.75V13.5755C11.2575 13.2417 13.2417 11.2575 13.5755 8.75H16V7.25H13.5755Z" fill="currentColor"/>
</svg>
