<svg width="16" height="16" viewBox="0 0 16 16" fill="none" xmlns="http://www.w3.org/2000/svg">
<path fill-rule="evenodd" clip-rule="evenodd" d="M2.875 0C1.50254 0 0.390625 1.11192 0.390625 2.48438C0.390625 3.85683 1.50254 4.96875 2.875 4.96875C4.24746 4.96875 5.35938 3.85683 5.35938 2.48438C5.35938 1.11192 4.24746 0 2.875 0ZM1.89062 2.48438C1.89062 1.94035 2.33097 1.5 2.875 1.5C3.41903 1.5 3.85938 1.94035 3.85938 2.48438C3.85938 3.0284 3.41903 3.46875 2.875 3.46875C2.33097 3.46875 1.89062 3.0284 1.89062 2.48438ZM9.69536 2.48022C8.14523 2.48022 6.8894 3.73605 6.8894 5.28618C6.8894 6.83631 8.14523 8.09214 9.69536 8.09214C11.2455 8.09214 12.5013 6.83631 12.5013 5.28618C12.5013 3.73605 11.2455 2.48022 9.69536 2.48022ZM8.3894 5.28618C8.3894 4.56448 8.97366 3.98022 9.69536 3.98022C10.4171 3.98022 11.0013 4.56448 11.0013 5.28618C11.0013 6.00788 10.4171 6.59214 9.69536 6.59214C8.97366 6.59214 8.3894 6.00788 8.3894 5.28618ZM4.5 10.2872H14.8906V16H13.3906V11.7872H6V16H4.5V10.2872ZM5.26562 6.59213H0V11.79H1.5V8.09213H5.26562V6.59213Z" fill="currentColor"/>
</svg>
