<svg width="16" height="16" viewBox="0 0 16 16" fill="none" xmlns="http://www.w3.org/2000/svg">
<path fill-rule="evenodd" clip-rule="evenodd" d="M7.78339 14.5C11.3732 14.5 14.2834 11.5899 14.2834 8C14.2834 4.41015 11.3732 1.5 7.78339 1.5C5.61088 1.5 3.6873 2.56583 2.50703 4.20312H0.740068C2.09209 1.70035 4.73917 0 7.78339 0C12.2017 0 15.7834 3.58172 15.7834 8C15.7834 12.4183 12.2017 16 7.78339 16C4.66999 16 1.97198 14.2215 0.649902 11.625H2.38728C3.55457 13.3592 5.53576 14.5 7.78339 14.5Z" fill="currentColor"/>
<path fill-rule="evenodd" clip-rule="evenodd" d="M9.32991 7.20313L7.03211 4.90533L8.09277 3.84467L12.2481 7.99999L8.09277 12.1553L7.03211 11.0947L9.42364 8.70313H0V7.20313H9.32991Z" fill="currentColor"/>
</svg>
