<svg width="16" height="16" viewBox="0 0 16 16" fill="none" xmlns="http://www.w3.org/2000/svg">
<path fill-rule="evenodd" clip-rule="evenodd" d="M9.04165 3.95312L9.04294 3.95515H9.86719H13.5V6H15V3.95515V2.45515H13.5H9.86719L8.30774 0H7.05H0V1.5V1.83333V13.5V15H1.5H3.71899V13.5H3.69834H3.66922H3.6401H3.61095H3.5818H3.55264H3.52346H3.49427H3.46506H3.43585H3.40662H3.37738H3.34813H3.31886H3.28958H3.26029H3.23098H3.20166H3.17233H3.14298H3.11362H3.08425H3.05486H3.02546H2.99605H2.96662H2.93717H2.90771H2.87824H2.84876H2.81926H2.78974H2.76021H2.73067H2.70111H2.67153H2.64194H2.61234H2.58272H2.55308H2.52343H2.49377H2.46408H2.43439H2.40467H2.37495H2.3452H2.31544H2.28566H2.25587H2.22606H2.19624H2.16639H2.13654H2.10666H2.07677H2.04686H2.01693H1.98699H1.95703H1.92705H1.89706H1.86705H1.83702H1.80697H1.77691H1.74683H1.71673H1.68661H1.65648H1.62632H1.59615H1.56596H1.53575H1.50553H1.5V3.95312H9.04165ZM8.08889 2.45312H1.5V1.83333V1.82742V1.82151V1.8156V1.8097V1.80381V1.79791V1.79202V1.78614V1.78026V1.77439V1.76852V1.76265V1.75679V1.75093V1.74508V1.73924V1.73339V1.72756V1.72172V1.7159V1.71007V1.70425V1.69844V1.69263V1.68683V1.68103V1.67524V1.66945V1.66367V1.65789V1.65211V1.64635V1.64058V1.63483V1.62907V1.62333V1.61758V1.61185V1.60612V1.60039V1.59467V1.58895V1.58325V1.57754V1.57184V1.56615V1.56046V1.55478V1.5491V1.54343V1.53777V1.53211V1.52646V1.52081V1.51517V1.50953V1.5039V1.5H7.05H7.051H7.05203H7.05307H7.05413H7.05522H7.05633H7.05745H7.0586H7.05977H7.06095H7.06216H7.06339H7.06464H7.0659H7.06719H7.0685H7.06982H7.07117H7.07254H7.07392H7.07533H7.07675H7.07819H7.07965H7.08113H7.08263H7.08415H7.08569H7.08724H7.08881H7.0904H7.09201H7.09364H7.09529H7.09695H7.09864H7.10033H7.10205H7.10379H7.10554H7.10731H7.1091H7.1109H7.11272H7.11456H7.11642H7.11829H7.12018H7.12209H7.12401H7.12595H7.12791H7.12988H7.13187H7.13387H7.1359H7.13793H7.13999H7.14205H7.14414H7.14624H7.14836H7.15049H7.15263H7.1548H7.15697H7.15916H7.16137H7.16359H7.16583H7.16808H7.17035H7.17263H7.17493H7.17724H7.17956H7.1819H7.18425H7.18662H7.189H7.19139H7.1938H7.19623H7.19866H7.20111H7.20357H7.20605H7.20854H7.21104H7.21355H7.21608H7.21862H7.22118H7.22374H7.22632H7.22892H7.23152H7.23414H7.23676H7.23941H7.24206H7.24472H7.2474H7.25009H7.25279H7.2555H7.25822H7.26096H7.2637H7.26646H7.26923H7.27201H7.2748H7.2776H7.28042H7.28324H7.28607H7.28892H7.29177H7.29464H7.29751H7.3004H7.30329H7.3062H7.30911H7.31204H7.31497H7.31792H7.32087H7.32384H7.32681H7.32979H7.33278H7.33578H7.33879H7.34181H7.34484H7.34788H7.35092H7.35398H7.35704H7.36011H7.36319H7.36627H7.36937H7.37247H7.37558H7.3787H7.38183H7.38496H7.3881H7.39125H7.39441H7.39757H7.40074H7.40392H7.40711H7.4103H7.4135H7.4167H7.41992H7.42314H7.42636H7.42959H7.43283H7.43608H7.43933H7.44258H7.44585H7.44912H7.45239H7.45567H7.45896H7.46225H7.46554H7.46885H7.47215H7.47546H7.47878H7.4821H7.48349L8.08889 2.45312ZM7.26562 8.75684C7.26562 7.38438 8.37754 6.27246 9.75 6.27246C11.1225 6.27246 12.2344 7.38438 12.2344 8.75684C12.2344 10.1293 11.1225 11.2412 9.75 11.2412C8.37754 11.2412 7.26562 10.1293 7.26562 8.75684ZM9.75 7.77246C9.20597 7.77246 8.76562 8.21281 8.76562 8.75684C8.76562 9.30087 9.20597 9.74121 9.75 9.74121C10.294 9.74121 10.7344 9.30087 10.7344 8.75684C10.7344 8.21281 10.294 7.77246 9.75 7.77246ZM14 16V12.125H5.5V16H7V13.625H12.5V16H14Z" fill="currentColor"/>
</svg>
