<svg width="16" height="16" viewBox="0 0 16 16" fill="none" xmlns="http://www.w3.org/2000/svg">
<path fill-rule="evenodd" clip-rule="evenodd" d="M14.5 2.2641H1.5V13.6315H2.6875V10.3063H9.1875V13.6315H14.5V2.2641ZM7.6875 13.6315V11.8063H4.1875V13.6315H7.6875ZM0 0.764099V15.1315H16V0.764099H0ZM3.1875 6.98122C3.1875 5.45447 4.40519 4.19366 5.9375 4.19366C7.46981 4.19366 8.6875 5.45447 8.6875 6.98122C8.6875 8.50797 7.46981 9.76878 5.9375 9.76878C4.40519 9.76878 3.1875 8.50797 3.1875 6.98122ZM5.9375 5.69366C5.25981 5.69366 4.6875 6.25647 4.6875 6.98122C4.6875 7.70598 5.25981 8.26878 5.9375 8.26878C6.61519 8.26878 7.1875 7.70598 7.1875 6.98122C7.1875 6.25647 6.61519 5.69366 5.9375 5.69366ZM10.025 5.33713L13.625 5.33713V6.83713L10.025 6.83713L10.025 5.33713ZM13.625 8.62527H11.125V10.1253H13.625V8.62527Z" fill="currentColor"/>
</svg>
