<svg width="16" height="16" viewBox="0 0 16 16" fill="none" xmlns="http://www.w3.org/2000/svg">
<path fill-rule="evenodd" clip-rule="evenodd" d="M10.4211 5.60361H16V7.10361H10.4211V5.60361ZM10.4211 8.76566H16V10.2657H10.4211V8.76566ZM16 11.9277H10.4211V13.4277H16V11.9277Z" fill="currentColor"/>
<path fill-rule="evenodd" clip-rule="evenodd" d="M1.72412 5.35944V3.73138C1.72412 2.35067 2.84341 1.23138 4.22412 1.23138H4.77561C6.15632 1.23138 7.27561 2.35067 7.27561 3.73138V5.35944H9V13.6719H0V5.35944H1.72412ZM5.76994 3.62429C5.77369 3.65948 5.77561 3.69521 5.77561 3.73138V5.12429H3.22412V3.73138C3.22412 3.69521 3.22604 3.65948 3.22979 3.62429C3.28323 3.12236 3.70801 2.73138 4.22412 2.73138H4.77561C5.29172 2.73138 5.71651 3.12236 5.76994 3.62429ZM7.5 6.85944V12.1719H1.5V6.85944H7.5ZM3.74976 8.44012V10.5912H5.24976V8.44012H3.74976Z" fill="currentColor"/>
</svg>
