<svg width="32" height="32" viewBox="0 0 32 32" fill="none" xmlns="http://www.w3.org/2000/svg">
<path d="M0 8C0 4.22876 0 2.34315 1.17157 1.17157C2.34315 0 4.22876 0 8 0H24C27.7712 0 29.6569 0 30.8284 1.17157C32 2.34315 32 4.22876 32 8V24C32 27.7712 32 29.6569 30.8284 30.8284C29.6569 32 27.7712 32 24 32H8C4.22876 32 2.34315 32 1.17157 30.8284C0 29.6569 0 27.7712 0 24V8Z" fill="url(#paint0_linear_4389_56864)"/>
<path d="M10.9261 25.03V23.6294H13.8501V22.7694H12.4249V21.3688H19.0838L15.9878 16.0123L19.0838 10.6557H12.2529V18.0763H8.5918V6.96997H21.2215L23.3347 10.6311L20.2387 16.0123L23.4084 21.4917L21.3444 25.03H10.9261Z" fill="white"/>
<path d="M11.4914 21.3688H10.0908V22.7694H11.4914V21.3688Z" fill="white"/>
<path d="M9.99237 23.6294H8.5918V25.03H9.99237V23.6294Z" fill="white"/>
<defs>
<linearGradient id="paint0_linear_4389_56864" x1="16" y1="0" x2="16" y2="32" gradientUnits="userSpaceOnUse">
<stop stop-color="#F66F74"/>
<stop offset="1" stop-color="#F34D52"/>
</linearGradient>
</defs>
</svg>
