<svg
  xmlns="http://www.w3.org/2000/svg"
  viewBox="0 0 377 132">
  <path
    fill="#fff"
    d="M125.45,41.34V35.68h-5.18v5.66h-2.64V27.75h2.64v5.7h5.18v-5.7h2.64V41.34Zm12.32,0h-2.09l-.19-.67a5.69,5.69,0,0,1-3,.87c-1.87,0-2.66-1.23-2.66-2.92,0-2,.9-2.75,3-2.75h2.46v-1c0-1.09-.32-1.47-1.95-1.47a14.85,14.85,0,0,0-2.83.3l-.32-1.87a14,14,0,0,1,3.5-.46c3.21,0,4.15,1.08,4.15,3.54Zm-2.55-3.7h-1.89c-.84,0-1.07.22-1.07,1s.23,1,1,1a4.1,4.1,0,0,0,1.93-.51Zm7.91,3.9a12.53,12.53,0,0,1-3.52-.56L140,39.1a11.5,11.5,0,0,0,3,.43c1.13,0,1.3-.24,1.3-1s-.12-.9-1.78-1.29c-2.49-.58-2.79-1.18-2.79-3.08s.9-2.83,3.82-2.83a14.07,14.07,0,0,1,3.06.34l-.25,2a19,19,0,0,0-2.81-.28c-1.11,0-1.3.24-1.3.84,0,.79.06.85,1.44,1.19,2.85.73,3.13,1.09,3.13,3.1S146.21,41.54,143.13,41.54Zm11.7-.2V34.5c0-.53-.23-.79-.81-.79a7.22,7.22,0,0,0-2.67.83v6.8H148.8V27.56l2.55.38v4.34a9.38,9.38,0,0,1,3.73-.94c1.7,0,2.31,1.14,2.31,2.89v7.11Zm4.71-11.19v-2.4h2.55v2.4Zm0,11.19v-9.8h2.55v9.8Zm4.6-9.72c0-2.46,1.48-3.88,5-3.88a16.63,16.63,0,0,1,3.8.44l-.3,2.19a21.49,21.49,0,0,0-3.41-.34c-1.83,0-2.41.6-2.41,2v5.15c0,1.43.58,2,2.41,2a21.57,21.57,0,0,0,3.41-.35l.3,2.2a16.63,16.63,0,0,1-3.8.44c-3.48,0-5-1.43-5-3.88Zm14.41,9.92c-3.5,0-4.45-1.85-4.45-3.86V35.2c0-2,1-3.86,4.45-3.86S183,33.19,183,35.2v2.48C183,39.69,182.05,41.54,178.55,41.54Zm0-8.11c-1.37,0-1.89.58-1.89,1.69v2.64c0,1.1.52,1.69,1.89,1.69s1.88-.59,1.88-1.69V35.12C180.43,34,179.91,33.43,178.55,33.43Zm11.64.16A20.64,20.64,0,0,0,187.48,35v6.32h-2.55v-9.8h2.16l.16,1.09a11.23,11.23,0,0,1,2.69-1.29Zm10.22,4.49c0,2.17-1,3.46-3.38,3.46a14.74,14.74,0,0,1-2.72-.28v4l-2.56.38V31.54h2l.25.82a5.54,5.54,0,0,1,3.22-1c2.06,0,3.15,1.16,3.15,3.4Zm-6.1,1.11a11.85,11.85,0,0,0,2.26.26c.93,0,1.28-.43,1.28-1.31V34.68c0-.81-.31-1.25-1.26-1.25a3.66,3.66,0,0,0-2.28.89Z">
  </path>

  <path
    fill="#fff"
    d="M139.64,70.53c3.08-1.33,4.48-3.21,4.48-6.53V59.82c0-5.45-3.09-8.59-10.72-8.59H117.55V91.52h16.94c7.33,0,11-3.56,11-9.25V78C145.51,74,143.33,71.31,139.64,70.53Zm-14.46-13h7.32c2.78,0,4,1,4,3.27v3.57c0,2.36-1.08,3.75-4.06,3.75h-7.25ZM137.89,81.3c0,3-1.46,3.93-4.91,3.93h-7.8v-11h8.47c3,0,4.24,1.33,4.24,4.06Z">
  </path>

  <path
    fill="#fff"
    d="M161.54,61.45c-10.11,0-12.82,5.57-12.82,11.62v7.44c0,6,2.71,11.62,12.82,11.62s12.83-5.57,12.83-11.62V73.07C174.37,67,171.64,61.45,161.54,61.45ZM167,80.76c0,3.32-1.51,5.08-5.45,5.08s-5.44-1.76-5.44-5.08V72.83c0-3.33,1.51-5.08,5.44-5.08S167,69.5,167,72.83Z">
  </path>

  <path
    fill="#fff"
    d="M196.51,62.06V82.51c-2.66,1.39-5.87,2.48-7.68,2.48s-2.36-.78-2.36-2.36V62.06h-7.38V83.42c0,5.26,1.75,8.71,6.65,8.71A29.44,29.44,0,0,0,197.54,89l.72,2.48h5.64V62.06Z">
  </path>

  <path
    fill="#fff"
    d="M228.4,61.45a29.61,29.61,0,0,0-11.8,3.09l-.72-2.48h-5.64V91.52h7.39V71.08c2.66-1.39,5.87-2.48,7.68-2.48s2.36.78,2.36,2.35V91.52h7.38V70.17C235.05,64.9,233.3,61.45,228.4,61.45Z">
  </path>

  <path
    fill="#fff"
    d="M257.5,50V62.31a40.19,40.19,0,0,0-7.87-.86c-6.83,0-9.74,3.88-9.74,10.41v10c0,6.71,3.15,10.22,9.08,10.22A15.49,15.49,0,0,0,258.29,89l.72,2.48h5.87V49Zm0,33.16a10.43,10.43,0,0,1-6.59,2.66c-2.73,0-3.63-1.33-3.63-3.75V71.68c0-2.66,1-3.93,3.68-3.93a32.33,32.33,0,0,1,6.54.79Z">
  </path>

  <path
    fill="#fff"
    d="M280.8,61.45a38.34,38.34,0,0,0-10.11,1.4l.91,5.62a41.47,41.47,0,0,1,8.17-.9c4.71,0,5.62,1.15,5.62,4.42v3.08h-7.08c-6,0-8.59,2.3-8.59,8.29,0,5.08,2.3,8.77,7.68,8.77a16.18,16.18,0,0,0,8.78-2.6l.54,2h6.06V72.1C292.78,64.72,290.05,61.45,280.8,61.45Zm4.59,23.3a11.57,11.57,0,0,1-5.56,1.51c-2.3,0-3-.91-3-3,0-2.23.67-2.9,3.09-2.9h5.44Z">
  </path>

  <path
    fill="#fff"
    d="M313,61.45a33,33,0,0,0-7.74,3.88l-.48-3.27h-6.24V91.52h7.38v-19a57.85,57.85,0,0,1,7.81-4.3Z">
  </path>

  <path
    fill="#fff"
    d="M335.67,62.06,328.9,84.44l-6.72-22.38h-7.56l9.32,29.46h2.59l-3.68,11.92h7l3.93-11.92,9.43-29.46Z">
  </path>

  <polygon
    fill="#f04e54"
    points="44.94 102.47 44.94 97.64 54.96 97.64 54.96 94.67 50.1 94.67 50.1 89.82 73.03 89.82 62.38 71.38 73.03 52.93 49.53 52.93 49.53 78.51 36.88 78.51 36.88 40.29 80.4 40.29 87.67 52.87 76.98 71.38 87.88 90.26 80.84 102.47 44.94 102.47">
  </polygon>

  <rect
    fill="#f04e54"
    x="42.04"
    y="89.82"
    width="4.85"
    height="4.85">
  </rect>

  <rect
    fill="#f04e54"
    x="36.88"
    y="97.61"
    width="4.85"
    height="4.85">
  </rect>
</svg>
