<svg width="298" height="202" viewBox="0 0 298 202" fill="none" xmlns="http://www.w3.org/2000/svg">
<rect x="0.5" y="0.5" width="141" height="65" rx="2.5" fill="white"/>
<path fill-rule="evenodd" clip-rule="evenodd" d="M18 16.25C18 15.0074 19.0074 14 20.25 14H26.75C27.9926 14 29 15.0074 29 16.25V18.3622L31.0506 19.8147C31.6461 20.2365 32.0001 20.921 32.0001 21.6507L32.0001 26.7501C32.0001 27.4404 31.4404 28.0001 30.7501 28.0001H28.2501C28.0421 28.0001 27.854 27.9154 27.7181 27.7788C27.5833 27.6432 27.5 27.4563 27.5 27.25V16.25C27.5 15.8358 27.1642 15.5 26.75 15.5H20.25C19.8358 15.5 19.5 15.8358 19.5 16.25V27.25C19.5 27.6642 19.1642 28 18.75 28C18.3358 28 18 27.6642 18 27.25V16.25ZM29 26.5001V20.2004L30.1836 21.0387C30.3821 21.1793 30.5001 21.4075 30.5001 21.6507L30.5001 26.5001H29Z" fill="#BAC1CC"/>
<path d="M21.75 23.5498C21.3634 23.5498 21.05 23.8632 21.05 24.2498V27.2498C21.05 27.6364 21.3634 27.9498 21.75 27.9498C22.1366 27.9498 22.45 27.6364 22.45 27.2498V24.9498H24.55V27.2498C24.55 27.6364 24.8634 27.9498 25.25 27.9498C25.6366 27.9498 25.95 27.6364 25.95 27.2498V24.2498C25.95 23.8632 25.6366 23.5498 25.25 23.5498H21.75Z" fill="#BAC1CC"/>
<path d="M21.25 17.75C21.25 17.3358 21.5858 17 22 17H22.25C22.6642 17 23 17.3358 23 17.75C23 18.1642 22.6642 18.5 22.25 18.5H22C21.5858 18.5 21.25 18.1642 21.25 17.75Z" fill="#BAC1CC"/>
<path d="M24.75 17C24.3358 17 24 17.3358 24 17.75C24 18.1642 24.3358 18.5 24.75 18.5H25C25.4142 18.5 25.75 18.1642 25.75 17.75C25.75 17.3358 25.4142 17 25 17H24.75Z" fill="#BAC1CC"/>
<path d="M21.25 19.75C21.25 19.3358 21.5858 19 22 19H22.25C22.6642 19 23 19.3358 23 19.75C23 20.1642 22.6642 20.5 22.25 20.5H22C21.5858 20.5 21.25 20.1642 21.25 19.75Z" fill="#BAC1CC"/>
<path d="M24.75 19C24.3358 19 24 19.3358 24 19.75C24 20.1642 24.3358 20.5 24.75 20.5H25C25.4142 20.5 25.75 20.1642 25.75 19.75C25.75 19.3358 25.4142 19 25 19H24.75Z" fill="#BAC1CC"/>
<path d="M21.25 21.75C21.25 21.3358 21.5858 21 22 21H22.25C22.6642 21 23 21.3358 23 21.75C23 22.1642 22.6642 22.5 22.25 22.5H22C21.5858 22.5 21.25 22.1642 21.25 21.75Z" fill="#BAC1CC"/>
<path d="M24.75 21C24.3358 21 24 21.3358 24 21.75C24 22.1642 24.3358 22.5 24.75 22.5H25C25.4142 22.5 25.75 22.1642 25.75 21.75C25.75 21.3358 25.4142 21 25 21H24.75Z" fill="#BAC1CC"/>
<path d="M45.6289 16.3457C43.2383 16.3457 41.75 18.0508 41.75 20.7695C41.75 23.4766 43.2031 25.1992 45.6289 25.1992C48.043 25.1992 49.5078 23.4707 49.5078 20.7695C49.5078 18.0566 48.0312 16.3457 45.6289 16.3457ZM45.6289 17.3184C47.3574 17.3184 48.4238 18.6543 48.4238 20.7695C48.4238 22.8672 47.3633 24.2266 45.6289 24.2266C43.8711 24.2266 42.834 22.8672 42.834 20.7695C42.834 18.6543 43.9062 17.3184 45.6289 17.3184ZM51.207 25H52.2148V21.0859C52.2148 20.1953 52.9121 19.5508 53.873 19.5508C54.0723 19.5508 54.4355 19.5859 54.5176 19.6094V18.6016C54.3887 18.584 54.1777 18.5723 54.0137 18.5723C53.1758 18.5723 52.4492 19.0059 52.2617 19.6211H52.168V18.6836H51.207V25ZM58.2031 27.4258C59.9258 27.4258 61.0156 26.5234 61.0156 25.1113V18.6836H60.0547V19.6855H59.9609C59.5977 19.0059 58.8184 18.5723 57.9336 18.5723C56.3105 18.5723 55.2852 19.8555 55.2852 21.748C55.2852 23.6406 56.2988 24.9062 57.9336 24.9062C58.8008 24.9062 59.5156 24.5137 59.9141 23.8164H60.0078V25.0586C60.0078 25.9902 59.334 26.5469 58.2031 26.5469C57.2949 26.5469 56.7324 26.2129 56.6211 25.6973H55.5547C55.707 26.7402 56.6797 27.4258 58.2031 27.4258ZM58.1562 24.0156C56.9844 24.0156 56.3281 23.125 56.3281 21.748C56.3281 20.3711 56.9844 19.4805 58.1562 19.4805C59.3223 19.4805 60.0312 20.3711 60.0312 21.748C60.0312 23.125 59.3281 24.0156 58.1562 24.0156Z" fill="#6F7682"/>
<path d="M41.875 41.9453C41.9766 43.9844 43.6875 45.2812 46.2734 45.2812C49.0078 45.2812 50.7031 43.9219 50.7031 41.7344C50.7031 40.0234 49.7422 39.0703 47.4531 38.5469L46.1562 38.25C44.7578 37.9219 44.1875 37.4766 44.1875 36.7031C44.1875 35.7266 45.0469 35.0859 46.3438 35.0859C47.5781 35.0859 48.4531 35.7188 48.5938 36.7266H50.5234C50.4297 34.7969 48.7188 33.4453 46.3516 33.4453C43.8281 33.4453 42.1562 34.8047 42.1562 36.8359C42.1562 38.5078 43.1172 39.5156 45.1641 39.9844L46.625 40.3203C48.0703 40.6562 48.6875 41.1562 48.6875 41.9766C48.6875 42.9375 47.7266 43.6328 46.3984 43.6328C44.9688 43.6328 43.9688 42.9766 43.8438 41.9453H41.875ZM58.0659 42.6641C57.7847 43.3047 57.1206 43.6641 56.1597 43.6641C54.8862 43.6641 54.0659 42.7578 54.0191 41.3125V41.2109H59.9878V40.5938C59.9878 37.9141 58.5269 36.2969 56.0894 36.2969C53.6128 36.2969 52.0737 38.0234 52.0737 40.7656C52.0737 43.5 53.5894 45.1719 56.105 45.1719C58.1206 45.1719 59.5503 44.2031 59.9019 42.6641H58.0659ZM56.0816 37.8047C57.2456 37.8047 58.0112 38.625 58.0503 39.9219H54.0269C54.1128 38.6406 54.9253 37.8047 56.0816 37.8047ZM69.0459 39.3125C68.8428 37.5469 67.5147 36.2969 65.3194 36.2969C62.7491 36.2969 61.2412 37.9453 61.2412 40.7109C61.2412 43.5078 62.7569 45.1719 65.3272 45.1719C67.4912 45.1719 68.835 43.9688 69.0459 42.2031H67.2022C66.9991 43.1016 66.3272 43.5781 65.3194 43.5781C63.9991 43.5781 63.2022 42.5234 63.2022 40.7109C63.2022 38.9297 63.9912 37.8828 65.3194 37.8828C66.3819 37.8828 67.0225 38.4844 67.2022 39.3125H69.0459ZM75.69 33.4453C72.4166 33.4453 70.3541 35.7188 70.3541 39.3594C70.3541 42.9922 72.3853 45.2812 75.69 45.2812C78.9791 45.2812 81.0181 42.9922 81.0181 39.3594C81.0181 35.7188 78.9713 33.4453 75.69 33.4453ZM75.69 35.1875C77.69 35.1875 78.9634 36.8047 78.9634 39.3594C78.9634 41.8984 77.6978 43.5391 75.69 43.5391C73.6588 43.5391 72.4166 41.8984 72.4166 39.3594C72.4166 36.8047 73.69 35.1875 75.69 35.1875ZM87.5137 36.3203C86.3419 36.3203 85.3497 36.9062 84.8575 37.875H84.7247V36.4609H82.8575V47.8359H84.795V43.7031H84.9278C85.3653 44.6094 86.3106 45.1406 87.5372 45.1406C89.6934 45.1406 91.0372 43.4453 91.0372 40.7344C91.0372 38 89.6778 36.3203 87.5137 36.3203ZM86.9044 43.5312C85.5841 43.5312 84.7637 42.4609 84.7559 40.7344C84.7637 39.0078 85.5919 37.9375 86.9122 37.9375C88.2403 37.9375 89.045 38.9844 89.045 40.7344C89.045 42.4844 88.2481 43.5312 86.9044 43.5312ZM92.5172 38.8984C92.5172 40.1797 93.2906 40.9297 94.9313 41.3047L96.4469 41.6562C97.2594 41.8438 97.6266 42.1562 97.6266 42.6406C97.6266 43.2891 96.9469 43.7344 95.9703 43.7344C95.0016 43.7344 94.4 43.3438 94.2125 42.7109H92.2984C92.4469 44.25 93.7906 45.1719 95.9234 45.1719C98.0563 45.1719 99.5641 44.0859 99.5641 42.4531C99.5641 41.1953 98.8063 40.5 97.1734 40.125L95.6656 39.7891C94.8063 39.5859 94.4 39.2812 94.4 38.7969C94.4 38.1641 95.0641 37.7344 95.9469 37.7344C96.8531 37.7344 97.4234 38.125 97.5641 38.7266H99.3844C99.2438 37.1875 97.9703 36.2969 95.9391 36.2969C93.9234 36.2969 92.5172 37.3672 92.5172 38.8984Z" fill="#6F7682"/>
<rect x="0.5" y="0.5" width="141" height="65" rx="2.5" stroke="#BAC1CC"/>
<path d="M51.5 87.75C51.5 87.3358 51.8358 87 52.25 87C52.6642 87 53 87.3358 53 87.75V92.25C53 92.7141 53.1844 93.1592 53.5126 93.4874C53.8408 93.8156 54.2859 94 54.75 94H60.4393L58.2197 91.7803C57.9268 91.4874 57.9268 91.0126 58.2197 90.7197C58.5126 90.4268 58.9874 90.4268 59.2803 90.7197L62.7803 94.2197C63.0732 94.5126 63.0732 94.9874 62.7803 95.2803L59.2803 98.7803C58.9874 99.0732 58.5126 99.0732 58.2197 98.7803C57.9268 98.4874 57.9268 98.0126 58.2197 97.7197L60.4393 95.5H54.75C53.888 95.5 53.0614 95.1576 52.4519 94.5481C51.8424 93.9386 51.5 93.112 51.5 92.25V87.75Z" fill="#6F7682"/>
<rect x="76.5" y="60.5" width="141" height="65" rx="2.5" fill="white"/>
<path fill-rule="evenodd" clip-rule="evenodd" d="M95.25 74C94.5596 74 94 74.5596 94 75.25V78.75C94 79.4404 94.5596 80 95.25 80H98.75C99.4404 80 100 79.4404 100 78.75V75.25C100 74.5596 99.4404 74 98.75 74H95.25ZM95.5 78.5V75.5H98.5V78.5H95.5Z" fill="#BAC1CC"/>
<path fill-rule="evenodd" clip-rule="evenodd" d="M103.25 74C102.56 74 102 74.5596 102 75.25V78.75C102 79.4404 102.56 80 103.25 80H106.75C107.44 80 108 79.4404 108 78.75V75.25C108 74.5596 107.44 74 106.75 74H103.25ZM103.5 78.5V75.5H106.5V78.5H103.5Z" fill="#BAC1CC"/>
<path fill-rule="evenodd" clip-rule="evenodd" d="M102 83.25C102 82.5596 102.56 82 103.25 82H106.75C107.44 82 108 82.5596 108 83.25V86.75C108 87.4404 107.44 88 106.75 88H103.25C102.56 88 102 87.4404 102 86.75V83.25ZM103.5 83.5V86.5H106.5V83.5H103.5Z" fill="#BAC1CC"/>
<path fill-rule="evenodd" clip-rule="evenodd" d="M95.25 82C94.5596 82 94 82.5596 94 83.25V86.75C94 87.4404 94.5596 88 95.25 88H98.75C99.4404 88 100 87.4404 100 86.75V83.25C100 82.5596 99.4404 82 98.75 82H95.25ZM95.5 86.5V83.5H98.5V86.5H95.5Z" fill="#BAC1CC"/>
<path d="M118.078 76.5449V85H119.133V81.9824H121.26C122.848 81.9824 123.979 80.8633 123.979 79.2812C123.979 77.6699 122.871 76.5449 121.271 76.5449H118.078ZM119.133 77.4824H120.996C122.221 77.4824 122.895 78.1211 122.895 79.2812C122.895 80.4004 122.197 81.0449 120.996 81.0449H119.133V77.4824ZM125.578 85H126.586V81.0859C126.586 80.1953 127.283 79.5508 128.244 79.5508C128.443 79.5508 128.807 79.5859 128.889 79.6094V78.6016C128.76 78.584 128.549 78.5723 128.385 78.5723C127.547 78.5723 126.82 79.0059 126.633 79.6211H126.539V78.6836H125.578V85ZM132.568 85.1113C134.367 85.1113 135.48 83.8691 135.48 81.8418C135.48 79.8086 134.367 78.5723 132.568 78.5723C130.77 78.5723 129.656 79.8086 129.656 81.8418C129.656 83.8691 130.77 85.1113 132.568 85.1113ZM132.568 84.2031C131.373 84.2031 130.699 83.3359 130.699 81.8418C130.699 80.3418 131.373 79.4805 132.568 79.4805C133.764 79.4805 134.438 80.3418 134.438 81.8418C134.438 83.3359 133.764 84.2031 132.568 84.2031ZM137.602 77.4648C137.988 77.4648 138.305 77.1484 138.305 76.7617C138.305 76.375 137.988 76.0586 137.602 76.0586C137.215 76.0586 136.898 76.375 136.898 76.7617C136.898 77.1484 137.215 77.4648 137.602 77.4648ZM138.094 78.6836H137.086V85.3281C137.086 86.0254 136.852 86.3066 136.137 86.3066H135.984V87.168H136.16C137.484 87.168 138.094 86.6113 138.094 85.3105V78.6836ZM144.199 83.3652C143.936 83.9219 143.385 84.2207 142.57 84.2207C141.498 84.2207 140.801 83.4297 140.748 82.1816V82.1348H145.289V81.748C145.289 79.7852 144.252 78.5723 142.547 78.5723C140.812 78.5723 139.699 79.8613 139.699 81.8477C139.699 83.8457 140.795 85.1113 142.547 85.1113C143.93 85.1113 144.914 84.4434 145.207 83.3652H144.199ZM142.535 79.4629C143.537 79.4629 144.205 80.2012 144.229 81.3203H140.748C140.824 80.2012 141.527 79.4629 142.535 79.4629ZM152.098 80.6172C151.922 79.4922 150.984 78.5723 149.449 78.5723C147.68 78.5723 146.555 79.8496 146.555 81.8184C146.555 83.8281 147.686 85.1113 149.455 85.1113C150.973 85.1113 151.916 84.2559 152.098 83.0957H151.078C150.891 83.8105 150.299 84.2031 149.449 84.2031C148.324 84.2031 147.598 83.2773 147.598 81.8184C147.598 80.3887 148.312 79.4805 149.449 79.4805C150.357 79.4805 150.914 79.9902 151.078 80.6172H152.098ZM154.125 77.0488V78.6836H153.105V79.5273H154.125V83.3594C154.125 84.5664 154.646 85.0469 155.947 85.0469C156.146 85.0469 156.34 85.0234 156.539 84.9883V84.1387C156.352 84.1562 156.252 84.1621 156.07 84.1621C155.414 84.1621 155.133 83.8457 155.133 83.1016V79.5273H156.539V78.6836H155.133V77.0488H154.125Z" fill="#6F7682"/>
<path d="M125.664 105H127.828L123.82 93.7266H121.555L117.555 105H119.594L120.562 102.086H124.711L125.664 105ZM122.578 95.8438H122.711L124.242 100.531H121.031L122.578 95.8438ZM135.089 96.9297H135.207L137.503 105H139.394L142.417 93.7266H140.332L138.402 102.188H138.292L136.042 93.7266H134.253L132.035 102.188H131.917L129.988 93.7266H127.886L130.91 105H132.808L135.089 96.9297ZM143.663 101.945C143.765 103.984 145.476 105.281 148.062 105.281C150.796 105.281 152.491 103.922 152.491 101.734C152.491 100.023 151.53 99.0703 149.241 98.5469L147.944 98.25C146.546 97.9219 145.976 97.4766 145.976 96.7031C145.976 95.7266 146.835 95.0859 148.132 95.0859C149.366 95.0859 150.241 95.7188 150.382 96.7266H152.312C152.218 94.7969 150.507 93.4453 148.14 93.4453C145.616 93.4453 143.944 94.8047 143.944 96.8359C143.944 98.5078 144.905 99.5156 146.952 99.9844L148.413 100.32C149.858 100.656 150.476 101.156 150.476 101.977C150.476 102.938 149.515 103.633 148.187 103.633C146.757 103.633 145.757 102.977 145.632 101.945H143.663Z" fill="#6F7682"/>
<rect x="76.5" y="60.5" width="141" height="65" rx="2.5" stroke="#BAC1CC"/>
<path d="M123.5 149.75C123.5 149.336 123.836 149 124.25 149C124.664 149 125 149.336 125 149.75V154.25C125 154.714 125.184 155.159 125.513 155.487C125.841 155.816 126.286 156 126.75 156H132.439L130.22 153.78C129.927 153.487 129.927 153.013 130.22 152.72C130.513 152.427 130.987 152.427 131.28 152.72L134.78 156.22C135.073 156.513 135.073 156.987 134.78 157.28L131.28 160.78C130.987 161.073 130.513 161.073 130.22 160.78C129.927 160.487 129.927 160.013 130.22 159.72L132.439 157.5H126.75C125.888 157.5 125.061 157.158 124.452 156.548C123.842 155.939 123.5 155.112 123.5 154.25V149.75Z" fill="#6F7682"/>
<g filter="url(#filter0_dd_1930_7328)">
<rect x="149" y="121" width="140" height="68" rx="2" fill="white"/>
<path d="M168.05 141.75C168.05 141.363 168.363 141.05 168.75 141.05H172.25C172.637 141.05 172.95 141.363 172.95 141.75C172.95 142.137 172.637 142.45 172.25 142.45H168.75C168.363 142.45 168.05 142.137 168.05 141.75Z" fill="black"/>
<path d="M168.75 144.05C168.363 144.05 168.05 144.363 168.05 144.75C168.05 145.137 168.363 145.45 168.75 145.45H171.25C171.637 145.45 171.95 145.137 171.95 144.75C171.95 144.363 171.637 144.05 171.25 144.05H168.75Z" fill="black"/>
<path fill-rule="evenodd" clip-rule="evenodd" d="M165 140.25C165 139.007 166.007 138 167.25 138H173.75C174.633 138 175.398 138.509 175.766 139.25H176.75C177.448 139.25 178.051 139.659 178.332 140.25H179.25C180.216 140.25 181 141.034 181 142V148C181 148.966 180.216 149.75 179.25 149.75H178.332C178.051 150.341 177.448 150.75 176.75 150.75H175.766C175.398 151.491 174.633 152 173.75 152H167.25C166.007 152 165 150.993 165 149.75V140.25ZM178.5 148.25H179.25C179.388 148.25 179.5 148.138 179.5 148V142C179.5 141.862 179.388 141.75 179.25 141.75H178.5V148.25ZM176 149.25V140.75H176.75C176.888 140.75 177 140.862 177 141V149C177 149.138 176.888 149.25 176.75 149.25H176ZM167.25 139.5C166.836 139.5 166.5 139.836 166.5 140.25V149.75C166.5 150.164 166.836 150.5 167.25 150.5H173.75C174.164 150.5 174.5 150.164 174.5 149.75V140.25C174.5 139.836 174.164 139.5 173.75 139.5H167.25Z" fill="black"/>
<path d="M193.33 149V141.494H196.055V140.545H189.551V141.494H192.275V149H193.33ZM198.082 149.111C198.926 149.111 199.617 148.742 200.027 148.068H200.121V149H201.082V144.676C201.082 143.363 200.221 142.572 198.68 142.572C197.332 142.572 196.336 143.24 196.201 144.254H197.221C197.361 143.756 197.889 143.469 198.645 143.469C199.588 143.469 200.074 143.896 200.074 144.676V145.25L198.252 145.361C196.781 145.449 195.949 146.1 195.949 147.23C195.949 148.385 196.857 149.111 198.082 149.111ZM198.27 148.227C197.537 148.227 196.992 147.852 196.992 147.207C196.992 146.574 197.414 146.24 198.375 146.176L200.074 146.064V146.645C200.074 147.547 199.307 148.227 198.27 148.227ZM202.945 149H203.953V145.086C203.953 144.195 204.65 143.551 205.611 143.551C205.811 143.551 206.174 143.586 206.256 143.609V142.602C206.127 142.584 205.916 142.572 205.752 142.572C204.914 142.572 204.188 143.006 204 143.621H203.906V142.684H202.945V149ZM209.941 151.426C211.664 151.426 212.754 150.523 212.754 149.111V142.684H211.793V143.686H211.699C211.336 143.006 210.557 142.572 209.672 142.572C208.049 142.572 207.023 143.855 207.023 145.748C207.023 147.641 208.037 148.906 209.672 148.906C210.539 148.906 211.254 148.514 211.652 147.816H211.746V149.059C211.746 149.99 211.072 150.547 209.941 150.547C209.033 150.547 208.471 150.213 208.359 149.697H207.293C207.445 150.74 208.418 151.426 209.941 151.426ZM209.895 148.016C208.723 148.016 208.066 147.125 208.066 145.748C208.066 144.371 208.723 143.48 209.895 143.48C211.061 143.48 211.77 144.371 211.77 145.748C211.77 147.125 211.066 148.016 209.895 148.016ZM218.836 147.365C218.572 147.922 218.021 148.221 217.207 148.221C216.135 148.221 215.438 147.43 215.385 146.182V146.135H219.926V145.748C219.926 143.785 218.889 142.572 217.184 142.572C215.449 142.572 214.336 143.861 214.336 145.848C214.336 147.846 215.432 149.111 217.184 149.111C218.566 149.111 219.551 148.443 219.844 147.365H218.836ZM217.172 143.463C218.174 143.463 218.842 144.201 218.865 145.32H215.385C215.461 144.201 216.164 143.463 217.172 143.463ZM221.93 141.049V142.684H220.91V143.527H221.93V147.359C221.93 148.566 222.451 149.047 223.752 149.047C223.951 149.047 224.145 149.023 224.344 148.988V148.139C224.156 148.156 224.057 148.162 223.875 148.162C223.219 148.162 222.938 147.846 222.938 147.102V143.527H224.344V142.684H222.938V141.049H221.93Z" fill="black"/>
<path d="M195.211 169V159.422H198.688V157.727H189.727V159.422H193.195V169H195.211ZM204.378 166.664C204.097 167.305 203.433 167.664 202.472 167.664C201.199 167.664 200.378 166.758 200.332 165.312V165.211H206.3V164.594C206.3 161.914 204.839 160.297 202.402 160.297C199.925 160.297 198.386 162.023 198.386 164.766C198.386 167.5 199.902 169.172 202.417 169.172C204.433 169.172 205.863 168.203 206.214 166.664H204.378ZM202.394 161.805C203.558 161.805 204.324 162.625 204.363 163.922H200.339C200.425 162.641 201.238 161.805 202.394 161.805ZM207.78 162.898C207.78 164.18 208.554 164.93 210.194 165.305L211.71 165.656C212.522 165.844 212.89 166.156 212.89 166.641C212.89 167.289 212.21 167.734 211.233 167.734C210.265 167.734 209.663 167.344 209.476 166.711H207.562C207.71 168.25 209.054 169.172 211.187 169.172C213.319 169.172 214.827 168.086 214.827 166.453C214.827 165.195 214.069 164.5 212.437 164.125L210.929 163.789C210.069 163.586 209.663 163.281 209.663 162.797C209.663 162.164 210.327 161.734 211.21 161.734C212.116 161.734 212.687 162.125 212.827 162.727H214.647C214.507 161.188 213.233 160.297 211.202 160.297C209.187 160.297 207.78 161.367 207.78 162.898ZM217.073 158.367V160.516H215.721V162.023H217.073V166.734C217.073 168.383 217.854 169.039 219.815 169.039C220.19 169.039 220.549 169.008 220.831 168.953V167.469C220.596 167.492 220.448 167.508 220.174 167.508C219.362 167.508 219.003 167.125 219.003 166.273V162.023H220.831V160.516H219.003V158.367H217.073Z" fill="black"/>
<rect x="148.5" y="120.5" width="141" height="69" rx="2.5" stroke="#1563FF"/>
</g>
<defs>
<filter id="filter0_dd_1930_7328" x="140" y="116" width="158" height="86" filterUnits="userSpaceOnUse" color-interpolation-filters="sRGB">
<feFlood flood-opacity="0" result="BackgroundImageFix"/>
<feColorMatrix in="SourceAlpha" type="matrix" values="0 0 0 0 0 0 0 0 0 0 0 0 0 0 0 0 0 0 127 0" result="hardAlpha"/>
<feOffset dy="4"/>
<feGaussianBlur stdDeviation="2"/>
<feColorMatrix type="matrix" values="0 0 0 0 0 0 0 0 0 0 0 0 0 0 0 0 0 0 0.1 0"/>
<feBlend mode="normal" in2="BackgroundImageFix" result="effect1_dropShadow_1930_7328"/>
<feColorMatrix in="SourceAlpha" type="matrix" values="0 0 0 0 0 0 0 0 0 0 0 0 0 0 0 0 0 0 127 0" result="hardAlpha"/>
<feOffset dy="4"/>
<feGaussianBlur stdDeviation="4"/>
<feColorMatrix type="matrix" values="0 0 0 0 0 0 0 0 0 0 0 0 0 0 0 0 0 0 0.05 0"/>
<feBlend mode="normal" in2="effect1_dropShadow_1930_7328" result="effect2_dropShadow_1930_7328"/>
<feBlend mode="normal" in="SourceGraphic" in2="effect2_dropShadow_1930_7328" result="shape"/>
</filter>
</defs>
</svg>
