<svg width="240" height="198" viewBox="0 0 240 198" fill="none" xmlns="http://www.w3.org/2000/svg">
<rect x="0.5" y="0.5" width="151" height="65" rx="2.5" fill="white"/>
<path fill-rule="evenodd" clip-rule="evenodd" d="M18 16.25C18 15.0074 19.0074 14 20.25 14H26.75C27.9926 14 29 15.0074 29 16.25V18.3622L31.0506 19.8147C31.6461 20.2365 32.0001 20.921 32.0001 21.6507L32.0001 26.7501C32.0001 27.4404 31.4404 28.0001 30.7501 28.0001H28.2501C28.0421 28.0001 27.854 27.9154 27.7181 27.7788C27.5833 27.6432 27.5 27.4563 27.5 27.25V16.25C27.5 15.8358 27.1642 15.5 26.75 15.5H20.25C19.8358 15.5 19.5 15.8358 19.5 16.25V27.25C19.5 27.6642 19.1642 28 18.75 28C18.3358 28 18 27.6642 18 27.25V16.25ZM29 26.5001V20.2004L30.1836 21.0387C30.3821 21.1793 30.5001 21.4075 30.5001 21.6507L30.5001 26.5001H29Z" fill="#BAC1CC"/>
<path d="M21.75 23.5498C21.3634 23.5498 21.05 23.8632 21.05 24.2498V27.2498C21.05 27.6364 21.3634 27.9498 21.75 27.9498C22.1366 27.9498 22.45 27.6364 22.45 27.2498V24.9498H24.55V27.2498C24.55 27.6364 24.8634 27.9498 25.25 27.9498C25.6366 27.9498 25.95 27.6364 25.95 27.2498V24.2498C25.95 23.8632 25.6366 23.5498 25.25 23.5498H21.75Z" fill="#BAC1CC"/>
<path d="M21.25 17.75C21.25 17.3358 21.5858 17 22 17H22.25C22.6642 17 23 17.3358 23 17.75C23 18.1642 22.6642 18.5 22.25 18.5H22C21.5858 18.5 21.25 18.1642 21.25 17.75Z" fill="#BAC1CC"/>
<path d="M24.75 17C24.3358 17 24 17.3358 24 17.75C24 18.1642 24.3358 18.5 24.75 18.5H25C25.4142 18.5 25.75 18.1642 25.75 17.75C25.75 17.3358 25.4142 17 25 17H24.75Z" fill="#BAC1CC"/>
<path d="M21.25 19.75C21.25 19.3358 21.5858 19 22 19H22.25C22.6642 19 23 19.3358 23 19.75C23 20.1642 22.6642 20.5 22.25 20.5H22C21.5858 20.5 21.25 20.1642 21.25 19.75Z" fill="#BAC1CC"/>
<path d="M24.75 19C24.3358 19 24 19.3358 24 19.75C24 20.1642 24.3358 20.5 24.75 20.5H25C25.4142 20.5 25.75 20.1642 25.75 19.75C25.75 19.3358 25.4142 19 25 19H24.75Z" fill="#BAC1CC"/>
<path d="M21.25 21.75C21.25 21.3358 21.5858 21 22 21H22.25C22.6642 21 23 21.3358 23 21.75C23 22.1642 22.6642 22.5 22.25 22.5H22C21.5858 22.5 21.25 22.1642 21.25 21.75Z" fill="#BAC1CC"/>
<path d="M24.75 21C24.3358 21 24 21.3358 24 21.75C24 22.1642 24.3358 22.5 24.75 22.5H25C25.4142 22.5 25.75 22.1642 25.75 21.75C25.75 21.3358 25.4142 21 25 21H24.75Z" fill="#BAC1CC"/>
<path d="M45.6289 16.3457C43.2383 16.3457 41.75 18.0508 41.75 20.7695C41.75 23.4766 43.2031 25.1992 45.6289 25.1992C48.043 25.1992 49.5078 23.4707 49.5078 20.7695C49.5078 18.0566 48.0312 16.3457 45.6289 16.3457ZM45.6289 17.3184C47.3574 17.3184 48.4238 18.6543 48.4238 20.7695C48.4238 22.8672 47.3633 24.2266 45.6289 24.2266C43.8711 24.2266 42.834 22.8672 42.834 20.7695C42.834 18.6543 43.9062 17.3184 45.6289 17.3184ZM51.207 25H52.2148V21.0859C52.2148 20.1953 52.9121 19.5508 53.873 19.5508C54.0723 19.5508 54.4355 19.5859 54.5176 19.6094V18.6016C54.3887 18.584 54.1777 18.5723 54.0137 18.5723C53.1758 18.5723 52.4492 19.0059 52.2617 19.6211H52.168V18.6836H51.207V25ZM58.2031 27.4258C59.9258 27.4258 61.0156 26.5234 61.0156 25.1113V18.6836H60.0547V19.6855H59.9609C59.5977 19.0059 58.8184 18.5723 57.9336 18.5723C56.3105 18.5723 55.2852 19.8555 55.2852 21.748C55.2852 23.6406 56.2988 24.9062 57.9336 24.9062C58.8008 24.9062 59.5156 24.5137 59.9141 23.8164H60.0078V25.0586C60.0078 25.9902 59.334 26.5469 58.2031 26.5469C57.2949 26.5469 56.7324 26.2129 56.6211 25.6973H55.5547C55.707 26.7402 56.6797 27.4258 58.2031 27.4258ZM58.1562 24.0156C56.9844 24.0156 56.3281 23.125 56.3281 21.748C56.3281 20.3711 56.9844 19.4805 58.1562 19.4805C59.3223 19.4805 60.0312 20.3711 60.0312 21.748C60.0312 23.125 59.3281 24.0156 58.1562 24.0156Z" fill="#6F7682"/>
<path d="M41.875 41.9453C41.9766 43.9844 43.6875 45.2812 46.2734 45.2812C49.0078 45.2812 50.7031 43.9219 50.7031 41.7344C50.7031 40.0234 49.7422 39.0703 47.4531 38.5469L46.1562 38.25C44.7578 37.9219 44.1875 37.4766 44.1875 36.7031C44.1875 35.7266 45.0469 35.0859 46.3438 35.0859C47.5781 35.0859 48.4531 35.7188 48.5938 36.7266H50.5234C50.4297 34.7969 48.7188 33.4453 46.3516 33.4453C43.8281 33.4453 42.1562 34.8047 42.1562 36.8359C42.1562 38.5078 43.1172 39.5156 45.1641 39.9844L46.625 40.3203C48.0703 40.6562 48.6875 41.1562 48.6875 41.9766C48.6875 42.9375 47.7266 43.6328 46.3984 43.6328C44.9688 43.6328 43.9688 42.9766 43.8438 41.9453H41.875ZM58.0659 42.6641C57.7847 43.3047 57.1206 43.6641 56.1597 43.6641C54.8862 43.6641 54.0659 42.7578 54.0191 41.3125V41.2109H59.9878V40.5938C59.9878 37.9141 58.5269 36.2969 56.0894 36.2969C53.6128 36.2969 52.0737 38.0234 52.0737 40.7656C52.0737 43.5 53.5894 45.1719 56.105 45.1719C58.1206 45.1719 59.5503 44.2031 59.9019 42.6641H58.0659ZM56.0816 37.8047C57.2456 37.8047 58.0112 38.625 58.0503 39.9219H54.0269C54.1128 38.6406 54.9253 37.8047 56.0816 37.8047ZM69.0459 39.3125C68.8428 37.5469 67.5147 36.2969 65.3194 36.2969C62.7491 36.2969 61.2412 37.9453 61.2412 40.7109C61.2412 43.5078 62.7569 45.1719 65.3272 45.1719C67.4912 45.1719 68.835 43.9688 69.0459 42.2031H67.2022C66.9991 43.1016 66.3272 43.5781 65.3194 43.5781C63.9991 43.5781 63.2022 42.5234 63.2022 40.7109C63.2022 38.9297 63.9912 37.8828 65.3194 37.8828C66.3819 37.8828 67.0225 38.4844 67.2022 39.3125H69.0459ZM75.69 33.4453C72.4166 33.4453 70.3541 35.7188 70.3541 39.3594C70.3541 42.9922 72.3853 45.2812 75.69 45.2812C78.9791 45.2812 81.0181 42.9922 81.0181 39.3594C81.0181 35.7188 78.9713 33.4453 75.69 33.4453ZM75.69 35.1875C77.69 35.1875 78.9634 36.8047 78.9634 39.3594C78.9634 41.8984 77.6978 43.5391 75.69 43.5391C73.6588 43.5391 72.4166 41.8984 72.4166 39.3594C72.4166 36.8047 73.69 35.1875 75.69 35.1875ZM87.5137 36.3203C86.3419 36.3203 85.3497 36.9062 84.8575 37.875H84.7247V36.4609H82.8575V47.8359H84.795V43.7031H84.9278C85.3653 44.6094 86.3106 45.1406 87.5372 45.1406C89.6934 45.1406 91.0372 43.4453 91.0372 40.7344C91.0372 38 89.6778 36.3203 87.5137 36.3203ZM86.9044 43.5312C85.5841 43.5312 84.7637 42.4609 84.7559 40.7344C84.7637 39.0078 85.5919 37.9375 86.9122 37.9375C88.2403 37.9375 89.045 38.9844 89.045 40.7344C89.045 42.4844 88.2481 43.5312 86.9044 43.5312ZM92.5172 38.8984C92.5172 40.1797 93.2906 40.9297 94.9313 41.3047L96.4469 41.6562C97.2594 41.8438 97.6266 42.1562 97.6266 42.6406C97.6266 43.2891 96.9469 43.7344 95.9703 43.7344C95.0016 43.7344 94.4 43.3438 94.2125 42.7109H92.2984C92.4469 44.25 93.7906 45.1719 95.9234 45.1719C98.0563 45.1719 99.5641 44.0859 99.5641 42.4531C99.5641 41.1953 98.8063 40.5 97.1734 40.125L95.6656 39.7891C94.8063 39.5859 94.4 39.2812 94.4 38.7969C94.4 38.1641 95.0641 37.7344 95.9469 37.7344C96.8531 37.7344 97.4234 38.125 97.5641 38.7266H99.3844C99.2438 37.1875 97.9703 36.2969 95.9391 36.2969C93.9234 36.2969 92.5172 37.3672 92.5172 38.8984Z" fill="#6F7682"/>
<rect x="0.5" y="0.5" width="151" height="65" rx="2.5" stroke="#BAC1CC"/>
<path d="M19.5 87.75C19.5 87.3358 19.8358 87 20.25 87C20.6642 87 21 87.3358 21 87.75V92.25C21 92.7141 21.1844 93.1592 21.5126 93.4874C21.8408 93.8156 22.2859 94 22.75 94H28.4393L26.2197 91.7803C25.9268 91.4874 25.9268 91.0126 26.2197 90.7197C26.5126 90.4268 26.9874 90.4268 27.2803 90.7197L30.7803 94.2197C31.0732 94.5126 31.0732 94.9874 30.7803 95.2803L27.2803 98.7803C26.9874 99.0732 26.5126 99.0732 26.2197 98.7803C25.9268 98.4874 25.9268 98.0126 26.2197 97.7197L28.4393 95.5H22.75C21.888 95.5 21.0614 95.1576 20.4519 94.5481C19.8424 93.9386 19.5 93.112 19.5 92.25V87.75Z" fill="#6F7682"/>
<rect x="40.5" y="60.5" width="151" height="65" rx="2.5" fill="white"/>
<path fill-rule="evenodd" clip-rule="evenodd" d="M59.25 74C58.5596 74 58 74.5596 58 75.25V78.75C58 79.4404 58.5596 80 59.25 80H62.75C63.4404 80 64 79.4404 64 78.75V75.25C64 74.5596 63.4404 74 62.75 74H59.25ZM59.5 78.5V75.5H62.5V78.5H59.5Z" fill="#BAC1CC"/>
<path fill-rule="evenodd" clip-rule="evenodd" d="M67.25 74C66.5596 74 66 74.5596 66 75.25V78.75C66 79.4404 66.5596 80 67.25 80H70.75C71.4404 80 72 79.4404 72 78.75V75.25C72 74.5596 71.4404 74 70.75 74H67.25ZM67.5 78.5V75.5H70.5V78.5H67.5Z" fill="#BAC1CC"/>
<path fill-rule="evenodd" clip-rule="evenodd" d="M66 83.25C66 82.5596 66.5596 82 67.25 82H70.75C71.4404 82 72 82.5596 72 83.25V86.75C72 87.4404 71.4404 88 70.75 88H67.25C66.5596 88 66 87.4404 66 86.75V83.25ZM67.5 83.5V86.5H70.5V83.5H67.5Z" fill="#BAC1CC"/>
<path fill-rule="evenodd" clip-rule="evenodd" d="M59.25 82C58.5596 82 58 82.5596 58 83.25V86.75C58 87.4404 58.5596 88 59.25 88H62.75C63.4404 88 64 87.4404 64 86.75V83.25C64 82.5596 63.4404 82 62.75 82H59.25ZM59.5 86.5V83.5H62.5V86.5H59.5Z" fill="#BAC1CC"/>
<path d="M82.0781 76.5449V85H83.1328V81.9824H85.2598C86.8477 81.9824 87.9785 80.8633 87.9785 79.2812C87.9785 77.6699 86.8711 76.5449 85.2715 76.5449H82.0781ZM83.1328 77.4824H84.9961C86.2207 77.4824 86.8945 78.1211 86.8945 79.2812C86.8945 80.4004 86.1973 81.0449 84.9961 81.0449H83.1328V77.4824ZM89.5781 85H90.5859V81.0859C90.5859 80.1953 91.2832 79.5508 92.2441 79.5508C92.4434 79.5508 92.8066 79.5859 92.8887 79.6094V78.6016C92.7598 78.584 92.5488 78.5723 92.3848 78.5723C91.5469 78.5723 90.8203 79.0059 90.6328 79.6211H90.5391V78.6836H89.5781V85ZM96.5684 85.1113C98.3672 85.1113 99.4805 83.8691 99.4805 81.8418C99.4805 79.8086 98.3672 78.5723 96.5684 78.5723C94.7695 78.5723 93.6562 79.8086 93.6562 81.8418C93.6562 83.8691 94.7695 85.1113 96.5684 85.1113ZM96.5684 84.2031C95.373 84.2031 94.6992 83.3359 94.6992 81.8418C94.6992 80.3418 95.373 79.4805 96.5684 79.4805C97.7637 79.4805 98.4375 80.3418 98.4375 81.8418C98.4375 83.3359 97.7637 84.2031 96.5684 84.2031ZM101.602 77.4648C101.988 77.4648 102.305 77.1484 102.305 76.7617C102.305 76.375 101.988 76.0586 101.602 76.0586C101.215 76.0586 100.898 76.375 100.898 76.7617C100.898 77.1484 101.215 77.4648 101.602 77.4648ZM102.094 78.6836H101.086V85.3281C101.086 86.0254 100.852 86.3066 100.137 86.3066H99.9844V87.168H100.16C101.484 87.168 102.094 86.6113 102.094 85.3105V78.6836ZM108.199 83.3652C107.936 83.9219 107.385 84.2207 106.57 84.2207C105.498 84.2207 104.801 83.4297 104.748 82.1816V82.1348H109.289V81.748C109.289 79.7852 108.252 78.5723 106.547 78.5723C104.812 78.5723 103.699 79.8613 103.699 81.8477C103.699 83.8457 104.795 85.1113 106.547 85.1113C107.93 85.1113 108.914 84.4434 109.207 83.3652H108.199ZM106.535 79.4629C107.537 79.4629 108.205 80.2012 108.229 81.3203H104.748C104.824 80.2012 105.527 79.4629 106.535 79.4629ZM116.098 80.6172C115.922 79.4922 114.984 78.5723 113.449 78.5723C111.68 78.5723 110.555 79.8496 110.555 81.8184C110.555 83.8281 111.686 85.1113 113.455 85.1113C114.973 85.1113 115.916 84.2559 116.098 83.0957H115.078C114.891 83.8105 114.299 84.2031 113.449 84.2031C112.324 84.2031 111.598 83.2773 111.598 81.8184C111.598 80.3887 112.312 79.4805 113.449 79.4805C114.357 79.4805 114.914 79.9902 115.078 80.6172H116.098ZM118.125 77.0488V78.6836H117.105V79.5273H118.125V83.3594C118.125 84.5664 118.646 85.0469 119.947 85.0469C120.146 85.0469 120.34 85.0234 120.539 84.9883V84.1387C120.352 84.1562 120.252 84.1621 120.07 84.1621C119.414 84.1621 119.133 83.8457 119.133 83.1016V79.5273H120.539V78.6836H119.133V77.0488H118.125Z" fill="#6F7682"/>
<path d="M89.6641 105H91.8281L87.8203 93.7266H85.5547L81.5547 105H83.5938L84.5625 102.086H88.7109L89.6641 105ZM86.5781 95.8438H86.7109L88.2422 100.531H85.0312L86.5781 95.8438ZM99.0894 96.9297H99.2066L101.503 105H103.394L106.417 93.7266H104.332L102.402 102.188H102.292L100.042 93.7266H98.2534L96.0347 102.188H95.9175L93.9878 93.7266H91.8862L94.9097 105H96.8081L99.0894 96.9297ZM107.663 101.945C107.765 103.984 109.476 105.281 112.062 105.281C114.796 105.281 116.491 103.922 116.491 101.734C116.491 100.023 115.53 99.0703 113.241 98.5469L111.944 98.25C110.546 97.9219 109.976 97.4766 109.976 96.7031C109.976 95.7266 110.835 95.0859 112.132 95.0859C113.366 95.0859 114.241 95.7188 114.382 96.7266H116.312C116.218 94.7969 114.507 93.4453 112.14 93.4453C109.616 93.4453 107.944 94.8047 107.944 96.8359C107.944 98.5078 108.905 99.5156 110.952 99.9844L112.413 100.32C113.858 100.656 114.476 101.156 114.476 101.977C114.476 102.938 113.515 103.633 112.187 103.633C110.757 103.633 109.757 102.977 109.632 101.945H107.663Z" fill="#6F7682"/>
<rect x="40.5" y="60.5" width="151" height="65" rx="2.5" stroke="#BAC1CC"/>
<path d="M59.5 147.75C59.5 147.336 59.8358 147 60.25 147C60.6642 147 61 147.336 61 147.75V152.25C61 152.714 61.1844 153.159 61.5126 153.487C61.8408 153.816 62.2859 154 62.75 154H68.4393L66.2197 151.78C65.9268 151.487 65.9268 151.013 66.2197 150.72C66.5126 150.427 66.9874 150.427 67.2803 150.72L70.7803 154.22C71.0732 154.513 71.0732 154.987 70.7803 155.28L67.2803 158.78C66.9874 159.073 66.5126 159.073 66.2197 158.78C65.9268 158.487 65.9268 158.013 66.2197 157.72L68.4393 155.5H62.75C61.888 155.5 61.0614 155.158 60.4519 154.548C59.8424 153.939 59.5 153.112 59.5 152.25V147.75Z" fill="#6F7682"/>
<g filter="url(#filter0_dd_2219_10384)">
<rect x="81" y="121" width="150" height="64" rx="2" fill="white"/>
<path fill-rule="evenodd" clip-rule="evenodd" d="M105 139C103.895 139 103 139.895 103 141C103 142.105 103.895 143 105 143C106.105 143 107 142.105 107 141C107 139.895 106.105 139 105 139ZM104.5 141C104.5 140.724 104.724 140.5 105 140.5C105.276 140.5 105.5 140.724 105.5 141C105.5 141.276 105.276 141.5 105 141.5C104.724 141.5 104.5 141.276 104.5 141Z" fill="black"/>
<path fill-rule="evenodd" clip-rule="evenodd" d="M100 141C100 138.239 102.239 136 105 136C107.761 136 110 138.239 110 141C110 143.761 107.761 146 105 146C102.239 146 100 143.761 100 141ZM105 137.5C103.067 137.5 101.5 139.067 101.5 141C101.5 142.933 103.067 144.5 105 144.5C106.933 144.5 108.5 142.933 108.5 141C108.5 139.067 106.933 137.5 105 137.5Z" fill="black"/>
<path fill-rule="evenodd" clip-rule="evenodd" d="M97 141C97 136.582 100.582 133 105 133C109.418 133 113 136.582 113 141C113 145.418 109.418 149 105 149C100.582 149 97 145.418 97 141ZM105 134.5C101.41 134.5 98.5 137.41 98.5 141C98.5 144.59 101.41 147.5 105 147.5C108.59 147.5 111.5 144.59 111.5 141C111.5 137.41 108.59 134.5 105 134.5Z" fill="black"/>
<path d="M125.33 145V137.494H128.055V136.545H121.551V137.494H124.275V145H125.33ZM130.082 145.111C130.926 145.111 131.617 144.742 132.027 144.068H132.121V145H133.082V140.676C133.082 139.363 132.221 138.572 130.68 138.572C129.332 138.572 128.336 139.24 128.201 140.254H129.221C129.361 139.756 129.889 139.469 130.645 139.469C131.588 139.469 132.074 139.896 132.074 140.676V141.25L130.252 141.361C128.781 141.449 127.949 142.1 127.949 143.23C127.949 144.385 128.857 145.111 130.082 145.111ZM130.27 144.227C129.537 144.227 128.992 143.852 128.992 143.207C128.992 142.574 129.414 142.24 130.375 142.176L132.074 142.064V142.645C132.074 143.547 131.307 144.227 130.27 144.227ZM134.945 145H135.953V141.086C135.953 140.195 136.65 139.551 137.611 139.551C137.811 139.551 138.174 139.586 138.256 139.609V138.602C138.127 138.584 137.916 138.572 137.752 138.572C136.914 138.572 136.188 139.006 136 139.621H135.906V138.684H134.945V145ZM141.941 147.426C143.664 147.426 144.754 146.523 144.754 145.111V138.684H143.793V139.686H143.699C143.336 139.006 142.557 138.572 141.672 138.572C140.049 138.572 139.023 139.855 139.023 141.748C139.023 143.641 140.037 144.906 141.672 144.906C142.539 144.906 143.254 144.514 143.652 143.816H143.746V145.059C143.746 145.99 143.072 146.547 141.941 146.547C141.033 146.547 140.471 146.213 140.359 145.697H139.293C139.445 146.74 140.418 147.426 141.941 147.426ZM141.895 144.016C140.723 144.016 140.066 143.125 140.066 141.748C140.066 140.371 140.723 139.48 141.895 139.48C143.061 139.48 143.77 140.371 143.77 141.748C143.77 143.125 143.066 144.016 141.895 144.016ZM150.836 143.365C150.572 143.922 150.021 144.221 149.207 144.221C148.135 144.221 147.438 143.43 147.385 142.182V142.135H151.926V141.748C151.926 139.785 150.889 138.572 149.184 138.572C147.449 138.572 146.336 139.861 146.336 141.848C146.336 143.846 147.432 145.111 149.184 145.111C150.566 145.111 151.551 144.443 151.844 143.365H150.836ZM149.172 139.463C150.174 139.463 150.842 140.201 150.865 141.32H147.385C147.461 140.201 148.164 139.463 149.172 139.463ZM153.93 137.049V138.684H152.91V139.527H153.93V143.359C153.93 144.566 154.451 145.047 155.752 145.047C155.951 145.047 156.145 145.023 156.344 144.988V144.139C156.156 144.156 156.057 144.162 155.875 144.162C155.219 144.162 154.938 143.846 154.938 143.102V139.527H156.344V138.684H154.938V137.049H153.93Z" fill="black"/>
<path d="M127.211 165V155.422H130.688V153.727H121.727V155.422H125.195V165H127.211ZM136.378 162.664C136.097 163.305 135.433 163.664 134.472 163.664C133.199 163.664 132.378 162.758 132.332 161.312V161.211H138.3V160.594C138.3 157.914 136.839 156.297 134.402 156.297C131.925 156.297 130.386 158.023 130.386 160.766C130.386 163.5 131.902 165.172 134.417 165.172C136.433 165.172 137.863 164.203 138.214 162.664H136.378ZM134.394 157.805C135.558 157.805 136.324 158.625 136.363 159.922H132.339C132.425 158.641 133.238 157.805 134.394 157.805ZM139.78 158.898C139.78 160.18 140.554 160.93 142.194 161.305L143.71 161.656C144.522 161.844 144.89 162.156 144.89 162.641C144.89 163.289 144.21 163.734 143.233 163.734C142.265 163.734 141.663 163.344 141.476 162.711H139.562C139.71 164.25 141.054 165.172 143.187 165.172C145.319 165.172 146.827 164.086 146.827 162.453C146.827 161.195 146.069 160.5 144.437 160.125L142.929 159.789C142.069 159.586 141.663 159.281 141.663 158.797C141.663 158.164 142.327 157.734 143.21 157.734C144.116 157.734 144.687 158.125 144.827 158.727H146.647C146.507 157.188 145.233 156.297 143.202 156.297C141.187 156.297 139.78 157.367 139.78 158.898ZM149.073 154.367V156.516H147.721V158.023H149.073V162.734C149.073 164.383 149.854 165.039 151.815 165.039C152.19 165.039 152.549 165.008 152.831 164.953V163.469C152.596 163.492 152.448 163.508 152.174 163.508C151.362 163.508 151.003 163.125 151.003 162.273V158.023H152.831V156.516H151.003V154.367H149.073ZM163.517 165V155.422H166.994V153.727H158.033V155.422H161.502V165H163.517ZM169.435 165.141C170.552 165.141 171.489 164.656 171.966 163.828H172.099V165H173.966V159.164C173.966 157.359 172.732 156.297 170.536 156.297C168.505 156.297 167.091 157.25 166.935 158.742H168.763C168.943 158.156 169.552 157.836 170.443 157.836C171.489 157.836 172.052 158.312 172.052 159.164V159.898L169.849 160.031C167.771 160.148 166.607 161.047 166.607 162.578C166.607 164.141 167.786 165.141 169.435 165.141ZM170.005 163.648C169.146 163.648 168.528 163.219 168.528 162.484C168.528 161.773 169.036 161.375 170.122 161.305L172.052 161.172V161.867C172.052 162.883 171.177 163.648 170.005 163.648ZM176.032 165H177.969V160.039C177.969 158.836 178.844 158.055 180.102 158.055C180.43 158.055 180.946 158.109 181.094 158.164V156.398C180.915 156.352 180.571 156.32 180.29 156.32C179.188 156.32 178.266 156.945 178.032 157.789H177.899V156.461H176.032V165ZM185.871 168.25C188.363 168.25 189.942 167.008 189.942 165.047V156.461H188.074V157.828H187.942C187.473 156.898 186.457 156.32 185.293 156.32C183.113 156.32 181.762 158.023 181.762 160.641C181.762 163.203 183.106 164.875 185.262 164.875C186.449 164.875 187.379 164.375 187.871 163.453H188.004V165.078C188.004 166.164 187.231 166.805 185.903 166.805C184.84 166.805 184.153 166.422 184.028 165.82H182.082C182.238 167.289 183.676 168.25 185.871 168.25ZM185.871 163.336C184.52 163.336 183.754 162.289 183.754 160.633C183.754 158.984 184.52 157.938 185.871 157.938C187.215 157.938 188.035 158.984 188.035 160.641C188.035 162.289 187.223 163.336 185.871 163.336ZM197.625 162.664C197.343 163.305 196.679 163.664 195.718 163.664C194.445 163.664 193.625 162.758 193.578 161.312V161.211H199.547V160.594C199.547 157.914 198.086 156.297 195.648 156.297C193.172 156.297 191.632 158.023 191.632 160.766C191.632 163.5 193.148 165.172 195.664 165.172C197.679 165.172 199.109 164.203 199.461 162.664H197.625ZM195.64 157.805C196.804 157.805 197.57 158.625 197.609 159.922H193.586C193.672 158.641 194.484 157.805 195.64 157.805ZM201.839 154.367V156.516H200.488V158.023H201.839V162.734C201.839 164.383 202.62 165.039 204.581 165.039C204.956 165.039 205.316 165.008 205.597 164.953V163.469C205.363 163.492 205.214 163.508 204.941 163.508C204.128 163.508 203.769 163.125 203.769 162.273V158.023H205.597V156.516H203.769V154.367H201.839Z" fill="black"/>
<rect x="80.5" y="120.5" width="151" height="65" rx="2.5" stroke="#1563FF"/>
</g>
<defs>
<filter id="filter0_dd_2219_10384" x="72" y="116" width="168" height="82" filterUnits="userSpaceOnUse" color-interpolation-filters="sRGB">
<feFlood flood-opacity="0" result="BackgroundImageFix"/>
<feColorMatrix in="SourceAlpha" type="matrix" values="0 0 0 0 0 0 0 0 0 0 0 0 0 0 0 0 0 0 127 0" result="hardAlpha"/>
<feOffset dy="4"/>
<feGaussianBlur stdDeviation="2"/>
<feColorMatrix type="matrix" values="0 0 0 0 0 0 0 0 0 0 0 0 0 0 0 0 0 0 0.1 0"/>
<feBlend mode="normal" in2="BackgroundImageFix" result="effect1_dropShadow_2219_10384"/>
<feColorMatrix in="SourceAlpha" type="matrix" values="0 0 0 0 0 0 0 0 0 0 0 0 0 0 0 0 0 0 127 0" result="hardAlpha"/>
<feOffset dy="4"/>
<feGaussianBlur stdDeviation="4"/>
<feColorMatrix type="matrix" values="0 0 0 0 0 0 0 0 0 0 0 0 0 0 0 0 0 0 0.05 0"/>
<feBlend mode="normal" in2="effect1_dropShadow_2219_10384" result="effect2_dropShadow_2219_10384"/>
<feBlend mode="normal" in="SourceGraphic" in2="effect2_dropShadow_2219_10384" result="shape"/>
</filter>
</defs>
</svg>
