<svg width="16" height="16" viewBox="0 0 16 16" fill="none" xmlns="http://www.w3.org/2000/svg">
<path fill-rule="evenodd" clip-rule="evenodd" d="M9.18544 1.11673L4.58911 4.91271L7.89977 8.92139L9.74509 7.3974L12.3286 10.3492L10.0287 12.3622L11.0166 13.4909L13.3165 11.4779L14.2867 12.5865L11.9883 14.5982L12.9762 15.7269L16.4034 12.7273L10.9021 6.44183L12.4961 5.12541L9.18544 1.11673Z" fill="currentColor"/>
<path fill-rule="evenodd" clip-rule="evenodd" d="M9.39097 2.9997L4.63303 2.93436L4.56862 7.62444L6.96166 7.65731L7.02014 11.5795L3.96411 11.6251L3.98649 13.1249L7.04251 13.0793L7.06447 14.5523L4.01033 14.5979L4.03269 16.0977L8.58667 16.0298L8.46213 7.67792L9.32656 7.68979L9.39097 2.9997Z" fill="currentColor"/>
<path fill-rule="evenodd" clip-rule="evenodd" d="M7.73342 0.840799C7.01928 0.312425 6.13571 0 5.17915 0C2.805 0 0.880371 1.92463 0.880371 4.29878C0.880371 6.00532 1.87477 7.47961 3.31575 8.1738L3.33999 6.4085C2.75194 5.89543 2.38037 5.1405 2.38037 4.29878C2.38037 2.75306 3.63343 1.5 5.17915 1.5C5.67244 1.5 6.13592 1.62762 6.53838 1.85163L7.73342 0.840799Z" fill="currentColor"/>
</svg>
