<svg width="24" height="24" viewBox="0 0 24 24" fill="none" xmlns="http://www.w3.org/2000/svg">
<path fill-rule="evenodd" clip-rule="evenodd" d="M12.5832 1.67511L5.68872 7.36908L10.6547 13.3821L13.4227 11.0961L17.298 15.5239L13.8483 18.5432L15.3301 20.2363L18.7798 17.217L20.2352 18.8797L16.7874 21.8973L18.2693 23.5904L23.4101 19.091L15.1582 9.66276L17.5492 7.68814L12.5832 1.67511Z" fill="black"/>
<path fill-rule="evenodd" clip-rule="evenodd" d="M6.06114 10.6154C3.9843 10.3626 2.37549 8.59326 2.37549 6.44818C2.37549 4.12959 4.25508 2.25 6.57366 2.25C7.31363 2.25 8.00889 2.44144 8.6126 2.7775L10.4051 1.26126C9.33393 0.468662 8.00853 0 6.57366 0C3.01243 0 0.125488 2.88695 0.125488 6.44818C0.125488 10.0094 3.01243 12.8964 6.57366 12.8964C7.02078 12.8964 7.45727 12.8508 7.87875 12.7642L6.06114 10.6154Z" fill="black"/>
</svg>
