<svg width="24" height="24" viewBox="0 0 24 24" fill="none" xmlns="http://www.w3.org/2000/svg">
<path fill-rule="evenodd" clip-rule="evenodd" d="M12.4577 1.67511L5.56323 7.36908L10.5292 13.3821L13.2972 11.0961L17.1724 15.5238L13.7226 18.5433L15.2044 20.2364L18.6543 17.2169L20.1097 18.8797L16.662 21.8973L18.1438 23.5904L23.2846 19.091L15.0328 9.66276L17.4237 7.68814L12.4577 1.67511Z" fill="black"/>
<mask id="path-2-inside-1" fill="white">
<path fill-rule="evenodd" clip-rule="evenodd" d="M12.766 4.35302L5.62911 4.255L5.53249 11.2901L9.12206 11.3394L9.20978 17.2227L4.62573 17.2911L4.6593 19.5409L9.24333 19.4725L9.27627 21.682L4.69506 21.7503L4.7286 24L11.5596 23.8982L11.3728 11.3703L12.6694 11.3882L12.766 4.35302Z"/>
</mask>
<path fill-rule="evenodd" clip-rule="evenodd" d="M12.766 4.35302L5.62911 4.255L5.53249 11.2901L9.12206 11.3394L9.20978 17.2227L4.62573 17.2911L4.6593 19.5409L9.24333 19.4725L9.27627 21.682L4.69506 21.7503L4.7286 24L11.5596 23.8982L11.3728 11.3703L12.6694 11.3882L12.766 4.35302Z" fill="black"/>
<path d="M5.62911 4.255L5.64971 2.75515L4.14985 2.73455L4.12925 4.23441L5.62911 4.255ZM12.766 4.35302L14.2659 4.37362L14.2865 2.87376L12.7866 2.85316L12.766 4.35302ZM5.53249 11.2901L4.03264 11.2695L4.01204 12.7694L5.5119 12.79L5.53249 11.2901ZM9.12206 11.3394L10.6219 11.3171L10.6002 9.85959L9.14265 9.83958L9.12206 11.3394ZM9.20978 17.2227L9.23216 18.7226L10.732 18.7002L10.7096 17.2004L9.20978 17.2227ZM4.62573 17.2911L4.60335 15.7913L3.10352 15.8137L3.1259 17.3135L4.62573 17.2911ZM4.6593 19.5409L3.15947 19.5633L3.18185 21.0631L4.68168 21.0407L4.6593 19.5409ZM9.24333 19.4725L10.7432 19.4501L10.7208 17.9503L9.22095 17.9727L9.24333 19.4725ZM9.27627 21.682L9.29863 23.1818L10.7985 23.1594L10.7761 21.6596L9.27627 21.682ZM4.69506 21.7503L4.6727 20.2504L3.17286 20.2728L3.19522 21.7726L4.69506 21.7503ZM4.7286 24L3.22877 24.0224L3.25113 25.5222L4.75096 25.4998L4.7286 24ZM11.5596 23.8982L11.5819 25.398L13.0818 25.3756L13.0594 23.8758L11.5596 23.8982ZM11.3728 11.3703L11.3934 9.87048L9.84992 9.84929L9.87293 11.3927L11.3728 11.3703ZM12.6694 11.3882L12.6488 12.888L14.1487 12.9086L14.1693 11.4087L12.6694 11.3882ZM5.60851 5.75486L12.7454 5.85288L12.7866 2.85316L5.64971 2.75515L5.60851 5.75486ZM7.03235 11.3107L7.12897 4.2756L4.12925 4.23441L4.03264 11.2695L7.03235 11.3107ZM9.14265 9.83958L5.55309 9.79028L5.5119 12.79L9.10146 12.8393L9.14265 9.83958ZM7.62222 11.3618L7.70995 17.2451L10.7096 17.2004L10.6219 11.3171L7.62222 11.3618ZM9.1874 15.7229L4.60335 15.7913L4.64811 18.791L9.23216 18.7226L9.1874 15.7229ZM3.1259 17.3135L3.15947 19.5633L6.15913 19.5185L6.12557 17.2688L3.1259 17.3135ZM4.68168 21.0407L9.2657 20.9723L9.22095 17.9727L4.63692 18.0411L4.68168 21.0407ZM7.74349 19.4949L7.77644 21.7043L10.7761 21.6596L10.7432 19.4501L7.74349 19.4949ZM9.25391 20.1821L4.6727 20.2504L4.71742 23.2501L9.29863 23.1818L9.25391 20.1821ZM3.19522 21.7726L3.22877 24.0224L6.22843 23.9777L6.19489 21.7279L3.19522 21.7726ZM4.75096 25.4998L11.5819 25.398L11.5372 22.3983L4.70624 22.5002L4.75096 25.4998ZM13.0594 23.8758L12.8726 11.348L9.87293 11.3927L10.0597 23.9205L13.0594 23.8758ZM12.69 9.88829L11.3934 9.87048L11.3522 12.8702L12.6488 12.888L12.69 9.88829ZM11.2662 4.33242L11.1696 11.3676L14.1693 11.4087L14.2659 4.37362L11.2662 4.33242Z" fill="black" mask="url(#path-2-inside-1)"/>
<path fill-rule="evenodd" clip-rule="evenodd" d="M10.2796 1.26121C9.20838 0.46864 7.88301 0 6.44818 0C2.88695 0 0 2.88695 0 6.44818C0 9.00798 1.4916 11.2194 3.65306 12.2607L3.68943 9.61275C2.80735 8.84314 2.25 7.71075 2.25 6.44818C2.25 4.12959 4.12959 2.25 6.44818 2.25C7.18811 2.25 7.88333 2.44143 8.48703 2.77746L10.2796 1.26121Z" fill="black"/>
</svg>
